<?xml version="1.0" encoding="UTF-8"?>
<svg width="120px" height="120px" viewBox="0 0 120 120" version="1.1" xmlns="http://www.w3.org/2000/svg" xmlns:xlink="http://www.w3.org/1999/xlink">
    <!-- Generator: sketchtool 52.6 (67491) - http://www.bohemiancoding.com/sketch -->
    <title>D0B351FD-D63D-475F-BED5-BC78FE17336A</title>
    <desc>Created with sketchtool.</desc>
    <g id="Legal-&amp;-Licenses-on-LP" stroke="none" stroke-width="1" fill="none" fill-rule="evenodd">
        <g transform="translate(-240.000000, -365.000000)" id="Group-7">
            <g transform="translate(98.000000, 305.000000)">
                <g id="treasury_logo" transform="translate(142.000000, 60.000000)">
                    <path d="M59.9172414,0.827586207 C92.3586207,0.827586207 118.675862,27.1448276 118.675862,59.5862069 C118.675862,92.0275862 92.3586207,118.344828 59.9172414,118.344828 C27.4758621,118.344828 1.15862069,92.0275862 1.15862069,59.5862069 C1.15862069,27.1448276 27.4758621,0.827586207 59.9172414,0.827586207 Z M59.9172414,0 C26.9793103,0 0.331034483,26.8137931 0.331034483,59.5862069 C0.331034483,92.5241379 26.9793103,119.172414 59.9172414,119.172414 C92.8551724,119.172414 119.503448,92.3586207 119.503448,59.5862069 C119.668966,26.6482759 92.8551724,0 59.9172414,0 Z" id="Shape" fill="#11274B" fill-rule="nonzero"></path>
                    <path d="M59.9172414,0.496551724 C27.4758621,0.496551724 0.993103448,26.9793103 0.993103448,59.4206897 C0.993103448,91.862069 27.3103448,118.17931 59.9172414,118.17931 C92.3586207,118.17931 118.841379,91.862069 118.841379,59.4206897 C118.841379,26.8137931 92.5241379,0.496551724 59.9172414,0.496551724 Z" id="Path" fill="#FFFFFF"></path>
                    <path d="M59.9172414,15.5586207 C35.5862069,15.5586207 15.8896552,35.2551724 15.8896552,59.5862069 C15.8896552,83.9172414 35.5862069,103.613793 59.9172414,103.613793 C84.2482759,103.613793 103.944828,83.9172414 103.944828,59.5862069 C103.944828,35.2551724 84.2482759,15.5586207 59.9172414,15.5586207 Z" id="Path" fill="#004677"></path>
                    <path d="M59.9172414,103.77931 C35.5862069,103.77931 15.7241379,83.9172414 15.7241379,59.5862069 C15.7241379,35.0896552 35.5862069,15.2275862 59.9172414,15.2275862 C84.2482759,15.2275862 104.110345,35.0896552 104.110345,59.5862069 C104.275862,83.9172414 84.4137931,103.77931 59.9172414,103.77931 Z" id="Path" fill="#11274B"></path>
                    <path d="M59.9172414,1.82068966 C27.9724138,1.82068966 2.15172414,27.6413793 2.15172414,59.4206897 C2.15172414,91.2 27.9724138,117.02069 59.9172414,117.02069 C91.6965517,117.02069 117.517241,91.2 117.517241,59.4206897 C117.682759,27.6413793 91.862069,1.82068966 59.9172414,1.82068966 Z" id="Path" stroke="#11274B" stroke-width="0.5" stroke-linejoin="round"></path>
                    <path d="M16.2206897,36.4137931 L15.8896552,37.0758621 C14.8965517,36.5793103 14.7310345,36.7448276 14.5655172,37.0758621 L14.0689655,38.0689655 L16.2206897,39.062069 C17.0482759,39.3931034 17.0482759,39.3931034 17.5448276,38.4 L18.0413793,38.5655172 L16.5517241,41.8758621 L16.0551724,41.7103448 C16.3862069,40.8827586 16.3862069,40.8827586 15.5586207,40.5517241 L10.7586207,38.4 C10.0965517,38.0689655 9.93103448,38.0689655 9.6,38.8965517 L9.10344828,38.7310345 L11.5862069,33.4344828 L13.5724138,33.9310345 L13.2413793,34.5931034 C12.0827586,34.4275862 11.9172414,34.4275862 11.5862069,34.9241379 L10.9241379,36.2482759 C10.7586207,36.5793103 10.7586207,36.5793103 11.2551724,36.9103448 L13.5724138,37.9034483 L14.0689655,36.7448276 C14.2344828,36.2482759 14.2344828,36.0827586 13.2413793,35.7517241 L13.5724138,35.0896552 L16.2206897,36.4137931 Z" id="Path" fill="#11274B"></path>
                    <path d="M14.4,31.6137931 C13.737931,31.1172414 13.5724138,31.1172414 13.0758621,31.7793103 L12.5793103,31.4482759 L14.4,28.4689655 L14.8965517,28.8 C14.4,29.462069 14.5655172,29.6275862 15.2275862,30.1241379 L19.5310345,32.937931 C20.1931034,33.4344828 20.3586207,33.4344828 20.8551724,32.7724138 L21.3517241,33.1034483 L19.5310345,36.0827586 L19.0344828,35.5862069 C19.5310345,34.9241379 19.3655172,34.7586207 18.7034483,34.262069 L14.4,31.6137931 Z" id="Path" fill="#11274B"></path>
                    <path d="M24,26.3172414 L20.6896552,23.337931 C20.0275862,22.8413793 19.862069,22.8413793 19.3655172,23.337931 L19.0344828,23.0068966 L20.6896552,21.1862069 L21.0206897,21.5172414 C20.5241379,22.0137931 20.5241379,22.1793103 21.1862069,22.8413793 L26.3172414,27.3103448 L25.6551724,28.137931 L17.7103448,26.9793103 L21.5172414,30.2896552 C22.1793103,30.7862069 22.3448276,30.7862069 22.8413793,30.2896552 L23.1724138,30.6206897 L21.5172414,32.4413793 L21.1862069,32.1103448 C21.6827586,31.6137931 21.6827586,31.4482759 21.0206897,30.7862069 L17.0482759,27.3103448 C16.3862069,26.8137931 16.3862069,26.8137931 15.7241379,27.3103448 L15.3931034,26.9793103 L17.0482759,25.1586207 L24,26.3172414 Z" id="Path" fill="#11274B"></path>
                    <path d="M26.9793103,22.8413793 L27.3103448,24 C27.6413793,24.662069 27.6413793,24.662069 28.137931,24.3310345 L28.4689655,24.662069 L26.9793103,25.9862069 L26.6482759,25.6551724 C26.9793103,25.4896552 26.9793103,25.1586207 26.8137931,24.662069 L24.1655172,17.5448276 L24.9931034,16.8827586 L31.6137931,20.3586207 C32.2758621,20.6896552 32.4413793,20.6896552 32.7724138,20.3586207 L33.1034483,20.6896552 L30.7862069,22.6758621 L30.4551724,22.3448276 C30.9517241,21.8482759 30.9517241,21.6827586 30.2896552,21.5172414 L29.1310345,20.8551724 L26.9793103,22.8413793 Z M25.4896552,18.8689655 L26.8137931,22.3448276 L28.8,20.6896552 L25.4896552,18.8689655 Z" id="Shape" fill="#11274B" fill-rule="nonzero"></path>
                    <path d="M38.2344828,15.5586207 L36.0827586,11.5862069 C35.7517241,10.7586207 35.5862069,10.7586207 34.9241379,11.2551724 L34.5931034,10.7586207 L36.7448276,9.6 L37.0758621,10.0965517 C36.4137931,10.4275862 36.4137931,10.5931034 36.7448276,11.2551724 L40.0551724,17.2137931 L39.062069,17.7103448 L32.1103448,13.9034483 L34.5931034,18.3724138 C34.9241379,19.0344828 35.0896552,19.2 35.7517241,18.7034483 L36.0827586,19.2 L33.9310345,20.3586207 L33.6,19.862069 C34.262069,19.5310345 34.262069,19.3655172 33.9310345,18.7034483 L31.4482759,14.0689655 C31.1172414,13.4068966 30.9517241,13.2413793 30.2896552,13.737931 L29.9586207,13.2413793 L32.1103448,12.0827586 L38.2344828,15.5586207 Z" id="Path" fill="#11274B"></path>
                    <path d="M47.0068966,12.0827586 C47.0068966,12.7448276 46.8413793,13.4068966 46.5103448,13.9034483 C46.1793103,14.5655172 45.5172414,14.8965517 44.6896552,15.2275862 C43.5310345,15.5586207 42.537931,15.5586207 41.7103448,15.062069 C40.8827586,14.5655172 40.2206897,13.5724138 39.7241379,12.2482759 C39.2275862,10.9241379 39.3931034,9.76551724 39.8896552,8.77241379 C40.3862069,7.94482759 41.2137931,7.28275862 42.3724138,6.95172414 C42.8689655,6.7862069 43.2,6.7862069 43.6965517,6.62068966 C44.0275862,6.62068966 44.3586207,6.62068966 44.6896552,6.62068966 C45.0206897,7.11724138 45.1862069,7.77931034 45.6827586,8.44137931 L45.0206897,8.77241379 C44.6896552,8.11034483 44.3586207,7.6137931 44.0275862,7.44827586 C43.6965517,7.28275862 43.3655172,7.28275862 42.8689655,7.44827586 C42.2068966,7.6137931 41.8758621,8.11034483 41.5448276,8.60689655 C41.2137931,9.26896552 41.2137931,10.262069 41.7103448,11.5862069 C42.0413793,12.5793103 42.537931,13.5724138 43.2,14.0689655 C43.6965517,14.4 44.3586207,14.5655172 45.0206897,14.4 C45.5172414,14.2344828 45.8482759,13.9034483 46.1793103,13.5724138 C46.3448276,13.2413793 46.5103448,12.7448276 46.5103448,12.0827586 L47.0068966,12.0827586 Z" id="Path" fill="#11274B"></path>
                    <path d="M47.5034483,7.11724138 C47.337931,6.28965517 47.1724138,6.28965517 46.5103448,6.45517241 L46.3448276,5.95862069 L49.6551724,5.13103448 L49.8206897,5.62758621 C48.9931034,5.79310345 48.9931034,5.95862069 49.1586207,6.7862069 L50.3172414,11.9172414 C50.4827586,12.7448276 50.6482759,12.7448276 51.3103448,12.5793103 L51.4758621,13.0758621 L48,13.9034483 L47.8344828,13.4068966 C48.662069,13.2413793 48.662069,13.0758621 48.4965517,12.2482759 L47.5034483,7.11724138 Z" id="Path" fill="#11274B"></path>
                    <path d="M53.9586207,10.4275862 L53.7931034,11.4206897 C53.6275862,12.0827586 53.6275862,12.2482759 54.2896552,12.2482759 L54.2896552,12.7448276 L52.3034483,12.9103448 L52.3034483,12.4137931 C52.6344828,12.4137931 52.8,12.2482759 52.9655172,11.7517241 L54.9517241,4.46896552 L55.9448276,4.46896552 L59.2551724,11.2551724 C59.5862069,11.9172414 59.7517241,11.9172414 60.0827586,11.9172414 L60.0827586,12.4137931 L57.1034483,12.5793103 L57.1034483,12.0827586 C57.7655172,12.0827586 57.7655172,11.9172414 57.6,11.2551724 L57.1034483,10.0965517 L53.9586207,10.4275862 Z M55.2827586,6.28965517 L54.2896552,9.76551724 L56.7724138,9.6 L55.2827586,6.28965517 Z" id="Shape" fill="#11274B" fill-rule="nonzero"></path>
                    <path d="M67.0344828,12.7448276 L60.9103448,12.4137931 L60.9103448,11.9172414 C61.737931,11.9172414 61.9034483,11.9172414 61.9034483,11.0896552 L62.2344828,5.95862069 C62.2344828,5.13103448 62.2344828,4.96551724 61.4068966,4.96551724 L61.4068966,4.46896552 L65.0482759,4.8 L65.0482759,5.29655172 C64.2206897,5.29655172 64.0551724,5.29655172 64.0551724,6.12413793 L63.7241379,11.5862069 C63.7241379,12.0827586 63.7241379,12.0827586 64.0551724,12.0827586 L65.8758621,12.2482759 C66.537931,12.2482759 66.7034483,12.2482759 67.0344828,10.9241379 L67.6965517,10.9241379 L67.0344828,12.7448276 Z" id="Path" fill="#11274B"></path>
                    <path d="M78.2896552,13.9034483 C77.7931034,14.4 77.462069,14.8965517 76.8,15.062069 C76.137931,15.3931034 75.3103448,15.3931034 74.6482759,15.062069 C73.4896552,14.7310345 72.662069,14.0689655 72.3310345,13.2413793 C71.8344828,12.2482759 72,11.2551724 72.3310345,9.93103448 C72.8275862,8.60689655 73.4896552,7.77931034 74.4827586,7.28275862 C75.3103448,6.95172414 76.3034483,6.95172414 77.462069,7.28275862 C77.9586207,7.44827586 78.2896552,7.6137931 78.6206897,7.77931034 C78.9517241,7.94482759 79.1172414,8.11034483 79.4482759,8.27586207 C79.2827586,8.93793103 79.2827586,9.6 79.1172414,10.262069 L78.6206897,10.262069 C78.7862069,9.43448276 78.7862069,8.93793103 78.4551724,8.60689655 C78.2896552,8.27586207 77.9586207,8.11034483 77.462069,7.94482759 C76.8,7.77931034 76.3034483,7.77931034 75.6413793,8.11034483 C74.9793103,8.44137931 74.4827586,9.26896552 73.9862069,10.5931034 C73.6551724,11.5862069 73.4896552,12.5793103 73.8206897,13.4068966 C73.9862069,14.0689655 74.4827586,14.5655172 75.1448276,14.7310345 C75.6413793,14.8965517 76.137931,14.8965517 76.4689655,14.7310345 C76.8,14.5655172 77.2965517,14.2344828 77.6275862,13.9034483 L78.2896552,13.9034483 Z" id="Path" fill="#11274B"></path>
                    <path d="M85.0758621,18.2068966 C85.2413793,19.0344828 85.4068966,19.2 85.737931,19.3655172 L85.5724138,19.862069 L83.5862069,18.8689655 L83.2551724,14.7310345 L82.5931034,14.4 L81.6,16.3862069 C81.2689655,17.0482759 81.2689655,17.2137931 81.9310345,17.5448276 L81.7655172,18.0413793 L78.6206897,16.3862069 L78.7862069,15.8896552 C79.6137931,16.2206897 79.6137931,16.2206897 80.1103448,15.5586207 L82.4275862,10.9241379 C82.7586207,10.262069 82.7586207,10.0965517 82.0965517,9.6 L82.262069,9.10344828 L85.4068966,10.7586207 C86.5655172,11.2551724 87.062069,11.7517241 87.5586207,12.4137931 C87.8896552,12.9103448 87.8896552,13.5724138 87.5586207,14.2344828 C87.3931034,14.7310345 86.8965517,15.062069 86.4,15.2275862 C85.9034483,15.3931034 85.4068966,15.3931034 84.7448276,15.2275862 L85.0758621,18.2068966 Z M82.7586207,13.737931 L83.4206897,14.0689655 C83.9172414,14.4 84.4137931,14.4 84.9103448,14.4 C85.4068966,14.2344828 85.737931,14.0689655 85.9034483,13.4068966 C86.0689655,12.9103448 86.2344828,12.5793103 86.0689655,12.2482759 C85.9034483,11.9172414 85.737931,11.5862069 85.0758621,11.4206897 L84.5793103,11.0896552 C84.4137931,10.9241379 84.2482759,11.0896552 84.0827586,11.5862069 L82.7586207,13.737931 Z" id="Shape" fill="#11274B" fill-rule="nonzero"></path>
                    <path d="M90.0413793,15.3931034 C90.537931,14.7310345 90.537931,14.5655172 89.8758621,14.0689655 L90.2068966,13.5724138 L93.0206897,15.5586207 L92.6896552,16.0551724 C92.0275862,15.5586207 91.862069,15.7241379 91.3655172,16.3862069 L88.5517241,20.5241379 C88.0551724,21.1862069 88.0551724,21.3517241 88.7172414,21.8482759 L88.3862069,22.3448276 L85.5724138,20.3586207 L85.9034483,19.862069 C86.5655172,20.3586207 86.7310345,20.1931034 87.2275862,19.5310345 L90.0413793,15.3931034 Z" id="Path" fill="#11274B"></path>
                    <path d="M101.793103,23.5034483 L101.462069,23.8344828 C100.8,23.337931 100.8,23.337931 100.137931,24 L96.662069,27.8068966 C96.1655172,28.4689655 96.1655172,28.4689655 96.662069,29.1310345 L96.3310345,29.462069 L93.8482759,27.1448276 L94.1793103,26.8137931 C94.8413793,27.3103448 94.8413793,27.3103448 95.5034483,26.8137931 L98.8137931,23.1724138 L92.5241379,26.1517241 L92.0275862,25.6551724 L94.5103448,19.2 L91.2,22.8413793 C90.7034483,23.5034483 90.7034483,23.5034483 91.2,24 L90.8689655,24.3310345 L89.2137931,22.6758621 L89.5448276,22.3448276 C90.0413793,22.8413793 90.2068966,22.8413793 90.8689655,22.1793103 L94.5103448,18.3724138 C95.0068966,17.8758621 95.0068966,17.7103448 94.5103448,17.0482759 L94.8413793,16.7172414 L96.662069,18.537931 L94.3448276,24.4965517 L100.137931,21.8482759 L101.793103,23.5034483 Z" id="Path" fill="#11274B"></path>
                    <path d="M96.3310345,30.2896552 L96.8275862,29.9586207 C97.3241379,30.6206897 97.4896552,30.6206897 98.1517241,30.1241379 L102.289655,27.1448276 C102.951724,26.6482759 102.951724,26.4827586 102.455172,25.8206897 L102.951724,25.4896552 L106.593103,30.4551724 L105.268966,31.9448276 L104.937931,31.4482759 C105.765517,30.4551724 105.765517,30.2896552 105.434483,29.7931034 L104.441379,28.3034483 C104.275862,27.9724138 104.110345,27.9724138 103.77931,28.3034483 L101.793103,29.7931034 L102.62069,30.9517241 C102.951724,31.2827586 103.117241,31.2827586 103.944828,30.7862069 L104.275862,31.2827586 L101.958621,32.937931 L101.627586,32.4413793 C102.455172,31.7793103 102.455172,31.6137931 102.289655,31.2827586 L101.462069,30.1241379 L99.1448276,31.7793103 C98.4827586,32.1103448 98.4827586,32.1103448 98.6482759,32.2758621 L99.9724138,33.9310345 C100.303448,34.4275862 100.468966,34.5931034 101.793103,34.0965517 L102.124138,34.5931034 L100.137931,35.5862069 L96.3310345,30.2896552 Z" id="Path" fill="#11274B"></path>
                    <path d="M108.248276,38.5655172 C109.241379,37.737931 109.406897,37.4068966 108.910345,36.2482759 C108.744828,35.7517241 108.413793,35.4206897 108.082759,35.4206897 C107.751724,35.2551724 107.586207,35.2551724 107.255172,35.4206897 C107.089655,35.5862069 106.758621,35.7517241 106.758621,36.0827586 C106.593103,36.4137931 106.593103,36.9103448 106.593103,37.737931 C106.593103,38.8965517 106.593103,39.5586207 106.262069,40.2206897 C106.096552,40.7172414 105.765517,41.0482759 105.268966,41.2137931 C104.772414,41.5448276 104.110345,41.5448276 103.448276,41.2137931 C102.786207,40.8827586 102.124138,40.2206897 101.627586,39.2275862 C101.296552,38.4 101.131034,37.5724138 100.965517,36.9103448 C101.627586,36.5793103 102.124138,36.0827586 102.455172,35.7517241 L102.951724,36.2482759 C101.793103,37.2413793 101.793103,38.0689655 102.124138,38.8965517 C102.289655,39.3931034 102.62069,39.5586207 102.951724,39.7241379 C103.282759,39.8896552 103.613793,39.8896552 103.944828,39.7241379 C104.275862,39.5586207 104.441379,39.3931034 104.606897,39.062069 C104.772414,38.5655172 104.772414,38.0689655 104.772414,37.4068966 C104.772414,36.5793103 104.772414,35.5862069 105.103448,34.9241379 C105.268966,34.5931034 105.6,34.262069 106.096552,34.0965517 C106.593103,33.7655172 107.255172,33.9310345 107.917241,34.262069 C108.413793,34.5931034 108.910345,35.0896552 109.406897,36.0827586 C109.737931,36.9103448 109.903448,37.5724138 110.068966,38.2344828 C109.737931,38.4 109.241379,38.7310345 108.57931,39.2275862 L108.248276,38.5655172 Z" id="Path" fill="#11274B"></path>
                    <polygon id="Path" fill="#11274B" points="7.77931034 54.2896552 8.44137931 51.3103448 6.12413793 49.8206897 8.93793103 49.6551724 9.76551724 46.6758621 10.7586207 49.4896552 13.5724138 49.3241379 11.5862069 51.1448276 12.5793103 53.9586207 10.0965517 52.3034483"></polygon>
                    <polygon id="Path" fill="#11274B" points="107.586207 54.4551724 108.248276 51.6413793 105.765517 50.1517241 108.744828 49.8206897 109.406897 47.0068966 110.565517 49.8206897 113.37931 49.4896552 111.227586 51.4758621 112.22069 54.2896552 109.737931 52.6344828"></polygon>
                    <path d="M80.1103448,24.9931034 L93.6827586,33.1034483 C93.6827586,33.1034483 89.2137931,34.262069 90.0413793,44.5241379 L92.1931034,70.6758621 L59.7517241,47.0068966 L27.1448276,71.0068966 L29.2965517,44.5241379 C29.1310345,34.262069 25.6551724,33.1034483 25.6551724,33.1034483 L39.2275862,24.9931034 C52.137931,32.4413793 59.7517241,22.6758621 59.7517241,22.6758621 C71.1724138,33.6 80.1103448,24.9931034 80.1103448,24.9931034 Z" id="Path" fill="#FFFFFF"></path>
                    <path d="M32.6068966,53.462069 C32.6068966,53.462069 32.6068966,53.2965517 32.7724138,53.1310345 L32.937931,53.462069 L33.2689655,53.462069 C33.2689655,53.462069 33.2689655,53.1310345 33.1034483,52.9655172 C33.1034483,52.8 32.937931,52.6344828 32.937931,52.6344828 C34.0965517,50.4827586 38.4,42.537931 38.5655172,42.3724138 C38.7310345,42.0413793 38.8965517,42.2068966 38.8965517,42.0413793 C38.7310345,41.8758621 38.7310345,41.7103448 38.4,41.5448276 C38.2344828,41.2137931 37.9034483,41.2137931 37.9034483,41.2137931 C37.9034483,41.2137931 38.2344828,41.8758621 38.0689655,42.2068966 C38.0689655,42.3724138 34.0965517,49.4896552 32.6068966,52.3034483 C32.6068966,52.4689655 32.6068966,52.4689655 32.4413793,52.4689655 C32.4413793,52.4689655 32.4413793,52.4689655 32.2758621,52.8 C32.1103448,53.1310345 32.1103448,53.2965517 32.1103448,53.462069 C32.1103448,53.462069 35.4206897,57.7655172 39.2275862,57.9310345 L39.7241379,57.9310345 C43.5310345,57.9310345 46.1793103,54.4551724 46.6758621,53.462069 C46.8413793,53.2965517 46.6758621,53.1310345 46.5103448,52.8 C46.3448276,52.4689655 46.3448276,52.4689655 46.3448276,52.4689655 C46.3448276,52.4689655 46.5103448,52.4689655 46.3448276,52.4689655 C46.3448276,52.4689655 46.3448276,52.4689655 46.1793103,52.3034483 C46.1793103,52.3034483 46.0137931,52.3034483 46.1793103,52.3034483 C44.6896552,49.4896552 40.7172414,42.3724138 40.5517241,42.2068966 C40.5517241,42.0413793 40.7172414,41.2137931 40.7172414,41.2137931 C40.7172414,41.2137931 40.3862069,41.2137931 40.2206897,41.5448276 C40.0551724,41.8758621 39.8896552,41.8758621 39.8896552,42.0413793 C39.7241379,42.2068966 40.0551724,42.0413793 40.2206897,42.3724138 C40.2206897,42.537931 44.5241379,50.3172414 45.6827586,52.6344828 C45.6827586,52.6344828 45.6827586,52.8 45.5172414,52.9655172 C45.3517241,53.1310345 45.3517241,53.462069 45.3517241,53.462069 L45.8482759,53.462069 L46.0137931,53.1310345 C46.1793103,53.2965517 46.1793103,53.462069 46.1793103,53.462069 L39.7241379,53.462069 L39.7241379,53.1310345 C39.7241379,53.1310345 39.5586207,52.9655172 39.3931034,52.9655172 C39.2275862,53.1310345 39.062069,53.1310345 39.062069,53.1310345 L39.062069,53.462069 L32.6068966,53.462069 Z" id="Path" fill="#11274B"></path>
                    <path d="M38.0689655,41.3793103 C38.0689655,41.3793103 38.4,41.5448276 38.7310345,42.2068966 C38.7310345,42.2068966 38.7310345,42.3724138 38.5655172,42.3724138 C38.7310345,42.2068966 38.4,42.2068966 38.2344828,41.7103448 C38.0689655,41.5448276 38.0689655,41.5448276 38.0689655,41.3793103 Z" id="Path" fill="#FFFFFF"></path>
                    <path d="M40.5517241,41.3793103 C40.5517241,41.3793103 40.2206897,41.5448276 39.8896552,42.2068966 L39.8896552,42.3724138 C39.8896552,42.2068966 40.0551724,42.2068966 40.3862069,41.7103448 C40.3862069,41.5448276 40.5517241,41.5448276 40.5517241,41.3793103 Z" id="Path" fill="#FFFFFF"></path>
                    <path d="M39.2275862,40.2206897 C39.7241379,40.2206897 40.0551724,40.5517241 40.0551724,41.0482759 C40.0551724,41.5448276 39.7241379,41.8758621 39.2275862,41.8758621 C38.7310345,41.8758621 38.4,41.5448276 38.4,41.0482759 C38.5655172,40.7172414 38.8965517,40.2206897 39.2275862,40.2206897 L39.2275862,39.8896552 C38.5655172,39.8896552 38.0689655,40.3862069 38.0689655,41.0482759 C38.0689655,41.7103448 38.5655172,42.2068966 39.2275862,42.2068966 C39.8896552,42.2068966 40.3862069,41.7103448 40.3862069,41.0482759 C40.3862069,40.3862069 39.8896552,39.8896552 39.2275862,39.8896552 L39.2275862,40.2206897 Z" id="Path" fill="#11274B"></path>
                    <path d="M39.5586207,52.8 L39.3931034,42.0413793 L39.2275862,41.3793103 L39.062069,42.2068966 L38.8965517,52.8 C38.8965517,52.8 38.2344828,52.9655172 38.0689655,53.462069 L38.5655172,53.462069 C38.5655172,53.462069 38.7310345,53.1310345 39.2275862,53.1310345 C39.5586207,53.1310345 39.8896552,53.462069 39.8896552,53.462069 L40.5517241,53.462069 C40.5517241,53.462069 40.2206897,52.9655172 39.5586207,52.8 Z" id="Path" fill="#11274B"></path>
                    <path d="M74.4827586,53.462069 C74.4827586,53.462069 74.4827586,53.2965517 74.6482759,53.1310345 L74.6482759,53.462069 L75.1448276,53.462069 C75.1448276,53.462069 74.9793103,53.1310345 74.9793103,52.9655172 C74.9793103,52.8 74.8137931,52.6344828 74.8137931,52.6344828 C75.9724138,50.4827586 80.2758621,42.537931 80.2758621,42.3724138 C80.4413793,42.0413793 80.6068966,42.2068966 80.6068966,42.0413793 C80.6068966,41.8758621 80.4413793,41.7103448 80.2758621,41.5448276 C80.1103448,41.2137931 79.7793103,41.2137931 79.7793103,41.2137931 C79.7793103,41.2137931 80.1103448,41.8758621 79.9448276,42.2068966 C79.9448276,42.3724138 75.9724138,49.4896552 74.4827586,52.3034483 C74.4827586,52.4689655 74.3172414,52.4689655 74.3172414,52.4689655 C74.3172414,52.4689655 74.3172414,52.4689655 74.1517241,52.8 C73.9862069,53.1310345 73.9862069,53.2965517 73.9862069,53.462069 C73.9862069,53.462069 77.2965517,57.7655172 81.1034483,57.9310345 L81.4344828,57.9310345 C85.2413793,57.9310345 87.8896552,54.4551724 88.3862069,53.462069 C88.5517241,53.2965517 88.3862069,53.1310345 88.2206897,52.8 C88.0551724,52.4689655 88.0551724,52.4689655 88.0551724,52.4689655 C88.0551724,52.4689655 88.0551724,52.4689655 88.0551724,52.3034483 C88.0551724,52.3034483 87.8896552,52.3034483 88.0551724,52.3034483 C86.5655172,49.4896552 82.5931034,42.3724138 82.4275862,42.2068966 C82.4275862,42.0413793 82.5931034,41.2137931 82.5931034,41.2137931 C82.5931034,41.2137931 82.262069,41.2137931 82.0965517,41.5448276 C81.9310345,41.8758621 81.7655172,41.8758621 81.7655172,42.0413793 C81.7655172,42.2068966 81.9310345,42.0413793 82.0965517,42.3724138 C82.0965517,42.537931 86.4,50.3172414 87.7241379,52.6344828 C87.7241379,52.6344828 87.7241379,52.8 87.5586207,52.9655172 C87.5586207,53.1310345 87.3931034,53.462069 87.3931034,53.462069 L87.7241379,53.462069 L87.8896552,53.1310345 C87.8896552,53.2965517 88.0551724,53.462069 88.0551724,53.462069 L81.6,53.462069 L81.6,53.1310345 C81.6,53.1310345 81.4344828,52.9655172 81.2689655,52.9655172 C81.2689655,53.1310345 80.937931,53.1310345 80.937931,53.1310345 L80.937931,53.462069 L74.4827586,53.462069 Z" id="Path" fill="#11274B"></path>
                    <path d="M79.9448276,41.3793103 C79.9448276,41.3793103 80.2758621,41.5448276 80.6068966,42.2068966 C80.6068966,42.2068966 80.7724138,42.3724138 80.6068966,42.3724138 C80.6068966,42.2068966 80.4413793,42.2068966 80.2758621,41.7103448 C80.1103448,41.5448276 79.9448276,41.5448276 79.9448276,41.3793103 Z" id="Path" fill="#FFFFFF"></path>
                    <path d="M82.4275862,41.3793103 C82.4275862,41.3793103 82.0965517,41.5448276 81.7655172,42.2068966 L81.7655172,42.3724138 C81.7655172,42.2068966 81.9310345,42.2068966 82.262069,41.7103448 C82.262069,41.5448276 82.4275862,41.5448276 82.4275862,41.3793103 Z" id="Path" fill="#FFFFFF"></path>
                    <path d="M81.2689655,40.2206897 C81.7655172,40.2206897 82.0965517,40.5517241 82.0965517,41.0482759 C82.0965517,41.5448276 81.7655172,41.8758621 81.2689655,41.8758621 C80.937931,41.8758621 80.4413793,41.5448276 80.4413793,41.0482759 C80.4413793,40.7172414 80.7724138,40.2206897 81.2689655,40.2206897 L81.2689655,39.8896552 C80.6068966,39.8896552 80.1103448,40.3862069 80.1103448,41.0482759 C80.1103448,41.7103448 80.6068966,42.2068966 81.2689655,42.2068966 C81.9310345,42.2068966 82.4275862,41.7103448 82.4275862,41.0482759 C82.4275862,40.3862069 81.9310345,39.8896552 81.2689655,39.8896552 L81.2689655,40.2206897 Z" id="Path" fill="#11274B"></path>
                    <path d="M81.4344828,52.8 L81.2689655,42.0413793 L81.1034483,41.3793103 L80.937931,42.2068966 L80.7724138,52.8 C80.7724138,52.8 80.1103448,52.9655172 79.9448276,53.462069 L80.4413793,53.462069 C80.4413793,53.462069 80.6068966,53.1310345 81.1034483,53.1310345 C81.4344828,53.1310345 81.7655172,53.462069 81.7655172,53.462069 L82.262069,53.462069 C82.4275862,53.462069 82.0965517,52.9655172 81.4344828,52.8 Z" id="Path" fill="#11274B"></path>
                    <path d="M61.5724138,37.0758621 C61.5724138,37.0758621 61.9034483,41.3793103 62.0689655,42.0413793 C62.0689655,43.3655172 61.0758621,43.6965517 60.2482759,43.6965517 C59.2551724,43.6965517 57.9310345,43.2 58.0965517,42.0413793 C58.0965517,41.5448276 58.5931034,37.0758621 58.5931034,37.0758621 L43.5310345,37.0758621 C43.2,37.9034483 42.3724138,38.7310345 41.5448276,39.2275862 C39.3931034,40.5517241 37.0758621,39.3931034 36.7448276,38.8965517 C35.0896552,37.4068966 34.9241379,35.2551724 34.9241379,35.2551724 L36.7448276,34.9241379 C37.2413793,36.0827586 37.5724138,37.2413793 39.2275862,37.2413793 C41.2137931,37.2413793 42.0413793,35.0896552 42.0413793,35.0896552 L56.6068966,32.1103448 L59.0896552,34.9241379 L60.0827586,28.137931 L61.2413793,34.9241379 L63.7241379,32.1103448 L78.2896552,35.0896552 C78.2896552,35.0896552 79.1172414,37.2413793 81.1034483,37.2413793 C82.7586207,37.2413793 83.2551724,36.0827586 83.5862069,34.9241379 L85.2413793,35.2551724 C85.2413793,35.2551724 85.2413793,37.4068966 83.4206897,38.8965517 C83.0896552,39.2275862 80.7724138,40.5517241 78.4551724,39.2275862 C77.6275862,38.7310345 76.8,38.0689655 76.4689655,37.0758621 L61.5724138,37.0758621 Z" id="Path" fill="#11274B"></path>
                    <path d="M56.2758621,32.2758621 C56.2758621,32.1103448 42.2068966,35.4206897 42.2068966,35.4206897 C42.2068966,35.4206897 41.2137931,37.4068966 39.2275862,37.4068966 C38.8965517,37.4068966 40.3862069,37.737931 42.0413793,36.5793103 C42.537931,36.2482759 42.537931,35.7517241 42.537931,35.7517241 C42.537931,35.7517241 55.6137931,32.7724138 55.9448276,32.6068966 C55.9448276,32.4413793 56.2758621,32.4413793 56.2758621,32.2758621 Z" id="Path" fill="#FFFFFF"></path>
                    <path d="M35.7517241,35.2551724 C35.9172414,36.0827586 37.0758621,36.5793103 37.0758621,36.4137931 C36.2482759,35.5862069 36.2482759,35.0896552 36.4137931,35.0896552 L35.7517241,35.2551724 Z" id="Path" fill="#FFFFFF"></path>
                    <path d="M59.9172414,29.2965517 C59.9172414,29.2965517 59.9172414,29.6275862 59.9172414,30.6206897 C59.4206897,33.9310345 58.4275862,42.2068966 58.7586207,42.8689655 L59.0896552,43.2 C59.2551724,43.3655172 59.4206897,43.5310345 59.0896552,43.3655172 C58.5931034,43.2 58.0965517,42.8689655 58.262069,41.8758621 C58.262069,40.8827586 59.2551724,34.5931034 59.2551724,34.0965517 C59.2551724,33.9310345 59.9172414,29.2965517 59.9172414,29.2965517 Z" id="Path" fill="#FFFFFF"></path>
                    <path d="M61.5724138,34.4275862 C61.5724138,34.4275862 63.5586207,32.2758621 63.7241379,32.2758621 C63.8896552,32.2758621 77.6275862,35.2551724 77.6275862,35.2551724 C77.7931034,35.2551724 77.2965517,35.4206897 76.9655172,35.4206897 L63.8896552,32.6068966 C63.8896552,32.6068966 61.737931,34.5931034 61.5724138,34.4275862 Z" id="Path" fill="#FFFFFF"></path>
                    <path d="M84.5793103,35.5862069 C84.5793103,35.5862069 84.2482759,36.0827586 83.9172414,36.2482759 C83.9172414,36.2482759 83.4206897,36.9103448 83.0896552,37.0758621 C82.262069,37.4068966 82.0965517,37.5724138 81.2689655,37.4068966 C83.2551724,37.0758621 83.9172414,35.2551724 83.5862069,35.2551724 C83.5862069,35.2551724 84.5793103,35.4206897 84.5793103,35.5862069 Z" id="Path" fill="#FFFFFF"></path>
                    <path d="M88.8827586,82.5931034 C83.4206897,92.3586207 68.6896552,93.6827586 60.0827586,101.958621 C60.0827586,101.958621 56.7724138,98.9793103 46.8413793,94.6758621 C37.4068966,90.0413793 34.7586207,87.7241379 30.7862069,83.2551724 L60.4137931,62.0689655 L88.8827586,82.5931034 Z" id="Path" fill="#FFFFFF"></path>
                    <path d="M33.6,82.9241379 C39.2275862,92.5241379 51.4758621,94.1793103 60.2482759,102.455172 C60.2482759,102.455172 63.5586207,99.4758621 73.4896552,95.0068966 C82.9241379,90.2068966 85.2413793,87.5586207 89.2137931,83.0896552 L60.5793103,62.8965517 L33.6,82.9241379 Z" id="Path" fill="#FFFFFF"></path>
                    <path d="M45.3517241,53.7931034 C45.3517241,53.7931034 45.3517241,53.7931034 45.1862069,53.9586207 C44.8551724,54.6206897 43.862069,56.1103448 42.537931,56.7724138 C42.3724138,56.7724138 44.8551724,55.6137931 45.3517241,53.7931034 Z" id="Path" fill="#FFFFFF"></path>
                    <path d="M46.1793103,52.6344828 L46.0137931,52.8 C46.0137931,52.8 46.1793103,52.8 46.1793103,52.6344828 Z" id="Path" fill="#DCDDDE"></path>
                    <g id="Group" transform="translate(45.517241, 52.137931)">
                        <path d="M0.662068966,0.662068966 C0.662068966,0.662068966 0.496551724,0.662068966 0.662068966,0.662068966 C0.496551724,0.662068966 0.662068966,0.496551724 0.662068966,0.662068966 C0.662068966,0.496551724 0.662068966,0.496551724 0.662068966,0.662068966 Z" id="Path" fill="#B8BABC"></path>
                        <path d="M0.662068966,0.662068966 C0.496551724,0.662068966 0.496551724,0.662068966 0.662068966,0.662068966 C0.496551724,0.662068966 0.662068966,0.496551724 0.662068966,0.662068966 C0.662068966,0.496551724 0.662068966,0.496551724 0.662068966,0.662068966 Z" id="Path" fill="#97999C"></path>
                    </g>
                    <path d="M46.1793103,52.6344828 L46.0137931,52.8 C46.0137931,52.8 46.0137931,52.8 46.1793103,52.6344828 Z" id="Path" fill="#77787B"></path>
                    <path d="M32.2758621,52.6344828 L32.4413793,52.8 C32.6068966,52.8 32.4413793,52.8 32.2758621,52.6344828 Z" id="Path" fill="#DCDDDE"></path>
                    <polygon id="Path" fill="#FFFFFF" points="33.2689655 54.1241379 33.7655172 53.7931034 45.1862069 53.7931034 45.1862069 54.1241379"></polygon>
                    <path d="M79.6137931,57.2689655 C79.6137931,57.2689655 80.937931,57.9310345 83.0896552,57.4344828 C85.0758621,57.1034483 87.3931034,54.1241379 87.2275862,53.9586207 L86.7310345,53.9586207 C85.5724138,56.6068966 82.262069,58.0965517 79.6137931,57.2689655 Z" id="Path" fill="#FFFFFF"></path>
                    <path d="M74.3172414,52.6344828 C74.3172414,52.6344828 74.4827586,52.8 74.3172414,52.6344828 C74.4827586,52.8 74.3172414,52.8 74.3172414,52.6344828 Z" id="Path" fill="#DCDDDE"></path>
                    <path d="M74.3172414,52.8 C74.3172414,52.8 74.4827586,52.8 74.3172414,52.8 C74.4827586,52.8 74.3172414,52.6344828 74.3172414,52.8 C74.3172414,52.6344828 74.3172414,52.6344828 74.3172414,52.8 Z" id="Path" fill="#B8BABC"></path>
                    <path d="M74.3172414,52.8 C74.3172414,52.8 74.4827586,52.8 74.3172414,52.8 C74.4827586,52.8 74.3172414,52.6344828 74.3172414,52.8 C74.3172414,52.6344828 74.3172414,52.6344828 74.3172414,52.8 Z" id="Path" fill="#97999C"></path>
                    <path d="M74.3172414,52.6344828 C74.3172414,52.6344828 74.4827586,52.8 74.3172414,52.6344828 C74.4827586,52.8 74.4827586,52.8 74.3172414,52.6344828 Z" id="Path" fill="#77787B"></path>
                    <polygon id="Path" fill="#FFFFFF" points="75.6413793 54.1241379 76.137931 53.7931034 87.062069 53.7931034 87.2275862 54.1241379"></polygon>
                    <path d="M76.9655172,88.7172414 C78.1241379,88.5517241 79.1172414,87.7241379 78.9517241,86.0689655 C78.9517241,84.9103448 78.4551724,84.0827586 77.7931034,83.5862069 L77.9586207,83.5862069 C78.6206897,83.0896552 78.9517241,81.9310345 78.9517241,80.7724138 C78.9517241,79.1172414 77.7931034,77.7931034 76.6344828,77.9586207 C75.4758621,78.1241379 74.6482759,79.1172414 74.8137931,81.2689655 C74.8137931,82.9241379 75.6413793,83.7517241 75.6413793,83.7517241 C74.9793103,84.2482759 74.4827586,85.4068966 74.6482759,86.5655172 C74.6482759,88.0551724 75.6413793,88.8827586 76.9655172,88.7172414 L76.8,90.0413793 C73.9862069,90.0413793 72.9931034,88.2206897 72.662069,85.2413793 C72.662069,85.2413793 71.5034483,85.0758621 71.337931,86.0689655 C71.337931,86.0689655 71.0068966,85.2413793 70.1793103,85.2413793 L48.8275862,85.2413793 L48.4965517,85.0758621 L47.1724138,85.0758621 L47.1724138,89.3793103 C47.1724138,89.3793103 47.0068966,89.8758621 46.8413793,89.8758621 C46.6758621,89.8758621 43.862069,89.8758621 43.6965517,89.8758621 C43.5310345,89.8758621 43.5310345,89.5448276 43.5310345,89.5448276 L43.5310345,86.4 C43.5310345,86.4 43.6965517,86.2344828 43.862069,86.2344828 C44.0275862,86.2344828 44.6896552,86.2344828 44.6896552,86.2344828 C44.8551724,86.2344828 44.8551724,86.5655172 44.8551724,86.5655172 L44.8551724,87.5586207 L45.6827586,87.5586207 L45.6827586,85.2413793 L40.5517241,85.2413793 L40.5517241,87.5586207 L41.3793103,87.5586207 L41.3793103,86.4 L41.5448276,86.2344828 C41.7103448,86.2344828 42.3724138,86.2344828 42.537931,86.2344828 C42.7034483,86.2344828 42.7034483,86.5655172 42.7034483,86.5655172 L42.7034483,89.3793103 C42.7034483,89.3793103 42.537931,89.8758621 42.3724138,89.8758621 C42.2068966,89.8758621 39.3931034,89.8758621 39.2275862,89.8758621 C39.062069,89.8758621 39.062069,89.7103448 39.062069,89.7103448 L39.062069,85.2413793 C39.062069,85.2413793 38.7310345,85.2413793 37.4068966,85.2413793 C36.2482759,85.2413793 35.9172414,82.5931034 37.2413793,82.5931034 C37.737931,82.5931034 42.3724138,82.5931034 47.6689655,82.5931034 C47.8344828,82.5931034 47.8344828,82.4275862 48,82.4275862 C57.4344828,82.4275862 69.6827586,82.4275862 69.6827586,82.4275862 C70.6758621,82.4275862 70.8413793,81.6 70.8413793,81.6 C71.0068966,82.5931034 72.1655172,82.4275862 72.1655172,82.4275862 C72.3310345,79.2827586 73.1586207,76.9655172 76.3034483,76.9655172 C79.6137931,76.9655172 80.2758621,79.7793103 80.2758621,83.5862069 C80.2758621,87.3931034 79.7793103,90.2068966 76.3034483,90.2068966 L76.9655172,88.7172414 Z" id="Path" fill="#11274B"></path>
                    <path d="M46.0137931,82.5931034 L37.9034483,82.5931034 C37.9034483,82.5931034 37.4068966,82.5931034 37.2413793,82.7586207 C36.9103448,83.0896552 37.0758621,83.0896552 37.4068966,82.9241379 C37.5724138,82.9241379 37.9034483,82.9241379 38.0689655,82.9241379 C38.4,82.9241379 47.8344828,82.9241379 47.8344828,82.9241379 C47.8344828,82.9241379 47.8344828,82.7586207 47.8344828,82.5931034 L46.0137931,82.5931034 Z" id="Path" fill="#FFFFFF"></path>
                    <path d="M49.3241379,85.737931 C50.4827586,85.737931 50.6482759,84.7448276 50.6482759,83.5862069 C50.6482759,82.4275862 50.4827586,81.4344828 49.3241379,81.4344828 C48.1655172,81.4344828 48,82.4275862 48,83.5862069 C48,84.7448276 48.1655172,85.737931 49.3241379,85.737931 Z" id="Path" stroke="#FFFFFF" stroke-width="0.25" fill="#11274B"></path>
                    <path d="M48.3310345,84.2482759 C48.4965517,83.4206897 48.662069,82.5931034 48.9931034,82.262069 C49.3241379,81.9310345 49.8206897,81.7655172 49.4896552,81.7655172 C48,81.4344828 48.1655172,83.2551724 48.1655172,83.7517241 C48.1655172,84.2482759 48.1655172,84.7448276 48.3310345,84.2482759 Z" id="Path" fill="#FFFFFF"></path>
                    <path d="M40.3862069,87.7241379 L41.3793103,87.7241379 L41.5448276,87.7241379 C41.5448276,87.7241379 41.5448276,86.7310345 41.5448276,86.5655172 C41.5448276,86.4 41.5448276,86.5655172 41.7103448,86.8965517 C41.7103448,87.2275862 41.7103448,87.8896552 41.7103448,88.0551724 C41.8758621,88.0551724 39.8896552,87.7241379 40.3862069,87.7241379 Z" id="Path" fill="#FFFFFF"></path>
                    <path d="M44.8551724,87.7241379 L45.8482759,87.7241379 L46.0137931,87.7241379 C46.0137931,87.7241379 46.0137931,86.7310345 46.0137931,86.5655172 C46.0137931,86.4 46.0137931,86.7310345 46.1793103,86.8965517 C46.1793103,87.2275862 46.1793103,87.8896552 46.1793103,88.0551724 C46.3448276,88.0551724 44.3586207,87.7241379 44.8551724,87.7241379 Z" id="Path" fill="#FFFFFF"></path>
                    <path d="M50.8137931,82.4275862 L70.3448276,82.4275862 C70.3448276,82.4275862 71.0068966,82.4275862 71.337931,82.0965517 C71.337931,82.0965517 71.337931,82.4275862 71.1724138,82.5931034 C71.0068966,82.7586207 70.3448276,82.9241379 69.8482759,82.9241379 C69.6827586,82.9241379 50.9793103,82.9241379 50.9793103,82.9241379 C50.9793103,82.9241379 50.9793103,82.5931034 50.8137931,82.4275862 Z" id="Path" fill="#FFFFFF"></path>
                    <path d="M50.8137931,82.262069 L70.3448276,82.262069 C70.3448276,82.262069 71.0068966,82.262069 71.337931,81.7655172 C71.337931,81.7655172 71.1724138,82.0965517 71.1724138,82.262069 C71.0068966,82.4275862 70.8413793,82.5931034 70.6758621,82.5931034 C70.5103448,82.5931034 51.1448276,82.5931034 51.1448276,82.5931034 C51.1448276,82.5931034 50.9793103,82.5931034 50.8137931,82.262069 Z" id="Path" fill="#11274B"></path>
                    <path d="M77.9586207,83.5862069 C77.9586207,83.5862069 79.1172414,82.4275862 78.9517241,80.7724138 C78.7862069,79.4482759 78.4551724,78.9517241 78.2896552,78.7862069 C78.1241379,78.6206897 78.2896552,78.6206897 78.6206897,78.9517241 C78.9517241,79.2827586 79.6137931,81.2689655 78.9517241,83.0896552 C78.9517241,83.0896552 78.6206897,83.7517241 78.6206897,84.0827586 C78.6206897,84.4137931 79.2827586,85.0758621 79.2827586,85.4068966 C79.4482759,86.0689655 79.2827586,87.062069 78.9517241,88.0551724 C78.2896552,89.5448276 76.9655172,89.3793103 76.3034483,89.2137931 C75.4758621,89.0482759 75.8068966,88.8827586 76.3034483,89.0482759 C76.8,89.0482759 78.4551724,88.8827586 78.9517241,87.2275862 C79.2827586,85.5724138 78.7862069,84.5793103 78.4551724,84.0827586 C78.1241379,83.7517241 77.9586207,83.5862069 77.9586207,83.5862069 Z" id="Path" fill="#FFFFFF"></path>
                    <path d="M77.7931034,77.2965517 C77.462069,77.2965517 77.1310345,77.1310345 76.4689655,77.1310345 C76.4689655,77.1310345 74.4827586,77.1310345 73.9862069,78.4551724 C73.4896552,79.7793103 73.3241379,80.7724138 73.1586207,82.5931034 C72.9931034,84.2482759 73.1586207,85.5724138 73.3241379,86.5655172 C73.3241379,87.062069 73.8206897,88.7172414 74.6482759,89.0482759 C74.6482759,89.0482759 74.1517241,88.3862069 73.9862069,87.8896552 C73.4896552,86.2344828 73.3241379,83.9172414 73.6551724,82.262069 C73.9862069,80.4413793 74.4827586,78.1241379 75.4758621,77.9586207 C75.9724138,77.7931034 77.1310345,77.6275862 77.6275862,77.6275862 C77.7931034,77.462069 78.2896552,77.462069 77.7931034,77.2965517 Z" id="Path" fill="#FFFFFF"></path>
                    <rect id="Rectangle" fill="#FFFFFF" x="39.7241379" y="85.0758621" width="1" height="4.13793103"></rect>
                    <g id="Group" transform="translate(28.965517, 52.137931)" fill="#FFFFFF">
                        <polygon id="Path" points="38.5655172 5.46206897 36.5793103 5.46206897 35.9172414 3.47586207 35.2551724 5.46206897 33.2689655 5.46206897 34.9241379 6.62068966 34.262069 8.44137931 35.9172414 7.28275862 37.5724138 8.44137931 36.9103448 6.62068966"></polygon>
                        <polygon id="Path" points="29.462069 5.29655172 29.9586207 3.31034483 28.4689655 2.15172414 30.4551724 2.15172414 30.9517241 0.331034483 31.6137931 2.15172414 33.6 2.15172414 31.9448276 3.31034483 32.6068966 5.29655172 30.9517241 4.13793103"></polygon>
                        <polygon id="Path" points="24 5.46206897 25.9862069 5.46206897 26.6482759 3.47586207 27.1448276 5.46206897 29.1310345 5.46206897 27.6413793 6.62068966 28.137931 8.44137931 26.6482759 7.28275862 24.9931034 8.44137931 25.4896552 6.62068966"></polygon>
                        <polygon id="Path" points="19.2 8.60689655 21.1862069 8.60689655 21.8482759 6.7862069 22.5103448 8.60689655 24.4965517 8.77241379 22.8413793 9.93103448 23.5034483 11.7517241 21.8482759 10.5931034 20.1931034 11.7517241 20.8551724 9.76551724"></polygon>
                        <polygon id="Path" points="14.5655172 12.0827586 16.5517241 12.0827586 17.2137931 10.0965517 17.7103448 12.0827586 19.6965517 12.0827586 18.2068966 13.2413793 18.7034483 15.062069 17.2137931 13.9034483 15.5586207 15.062069 16.0551724 13.0758621"></polygon>
                        <polygon id="Path" points="9.76551724 15.2275862 11.9172414 15.2275862 12.4137931 13.4068966 13.0758621 15.2275862 15.062069 15.2275862 13.4068966 16.5517241 14.0689655 18.3724138 12.4137931 17.2137931 10.7586207 18.3724138 11.4206897 16.5517241"></polygon>
                        <polygon id="Path" points="5.13103448 18.7034483 7.11724138 18.7034483 7.77931034 16.7172414 8.27586207 18.7034483 10.4275862 18.7034483 8.77241379 19.862069 9.26896552 21.6827586 7.77931034 20.5241379 6.12413793 21.6827586 6.7862069 19.862069"></polygon>
                        <polygon id="Path" points="1.48965517 24.9931034 2.15172414 23.1724138 0.331034483 21.8482759 2.48275862 21.8482759 3.14482759 20.0275862 3.64137931 21.8482759 5.62758621 21.8482759 3.97241379 23.1724138 4.63448276 24.9931034 2.97931034 23.8344828"></polygon>
                        <polygon id="Path" points="43.2 8.60689655 41.2137931 8.60689655 40.5517241 6.7862069 40.0551724 8.60689655 38.0689655 8.77241379 39.5586207 9.93103448 39.062069 11.7517241 40.5517241 10.5931034 42.2068966 11.7517241 41.5448276 9.76551724"></polygon>
                        <polygon id="Path" points="47.8344828 11.9172414 45.8482759 11.9172414 45.1862069 10.0965517 44.5241379 11.9172414 42.537931 11.9172414 44.1931034 13.0758621 43.6965517 14.8965517 45.1862069 13.9034483 46.8413793 14.8965517 46.1793103 13.0758621"></polygon>
                        <polygon id="Path" points="52.6344828 15.2275862 50.4827586 15.2275862 49.9862069 13.4068966 49.3241379 15.2275862 47.337931 15.2275862 48.9931034 16.3862069 48.3310345 18.3724138 49.9862069 17.0482759 51.6413793 18.3724138 50.9793103 16.3862069"></polygon>
                        <polygon id="Path" points="57.2689655 18.7034483 55.2827586 18.7034483 54.6206897 16.8827586 54.1241379 18.7034483 52.137931 18.7034483 53.7931034 19.862069 53.1310345 21.6827586 54.7862069 20.5241379 56.2758621 21.6827586 55.7793103 19.862069"></polygon>
                        <polygon id="Path" points="61.0758621 24.9931034 60.4137931 23.1724138 62.0689655 21.8482759 60.0827586 21.8482759 59.4206897 20.0275862 58.7586207 21.8482759 56.7724138 21.8482759 58.4275862 23.1724138 57.7655172 24.9931034 59.4206897 23.8344828"></polygon>
                    </g>
                    <path d="M30.9517241,83.7517241 L60.4137931,62.4 L88.8827586,82.7586207 L88.8827586,83.0896552 L89.0482759,82.7586207 C91.5310345,79.7793103 92.3586207,76.137931 92.0275862,70.1793103 L60.2482759,47.0068966 L27.4758621,71.0068966" id="Path" stroke="#FFFFFF" stroke-width="0.25" fill="#11274B"></path>
                    <g id="Group" transform="translate(28.965517, 52.137931)" fill="#FFFFFF">
                        <polygon id="Path" points="38.5655172 5.46206897 36.5793103 5.46206897 35.9172414 3.47586207 35.2551724 5.46206897 33.2689655 5.46206897 34.9241379 6.62068966 34.262069 8.44137931 35.9172414 7.28275862 37.5724138 8.44137931 36.9103448 6.62068966"></polygon>
                        <polygon id="Path" points="29.462069 5.29655172 29.9586207 3.31034483 28.4689655 2.15172414 30.4551724 2.15172414 30.9517241 0.331034483 31.6137931 2.15172414 33.6 2.15172414 31.9448276 3.31034483 32.6068966 5.29655172 30.9517241 4.13793103"></polygon>
                        <polygon id="Path" points="24 5.46206897 25.9862069 5.46206897 26.6482759 3.47586207 27.1448276 5.46206897 29.1310345 5.46206897 27.6413793 6.62068966 28.137931 8.44137931 26.6482759 7.28275862 24.9931034 8.44137931 25.4896552 6.62068966"></polygon>
                        <polygon id="Path" points="19.2 8.60689655 21.1862069 8.60689655 21.8482759 6.7862069 22.5103448 8.60689655 24.4965517 8.77241379 22.8413793 9.93103448 23.5034483 11.7517241 21.8482759 10.5931034 20.1931034 11.7517241 20.8551724 9.76551724"></polygon>
                        <polygon id="Path" points="14.5655172 12.0827586 16.5517241 12.0827586 17.2137931 10.0965517 17.7103448 12.0827586 19.6965517 12.0827586 18.2068966 13.2413793 18.7034483 15.062069 17.2137931 13.9034483 15.5586207 15.062069 16.0551724 13.0758621"></polygon>
                        <polygon id="Path" points="9.76551724 15.2275862 11.9172414 15.2275862 12.4137931 13.4068966 13.0758621 15.2275862 15.062069 15.2275862 13.4068966 16.5517241 14.0689655 18.3724138 12.4137931 17.2137931 10.7586207 18.3724138 11.4206897 16.5517241"></polygon>
                        <polygon id="Path" points="5.13103448 18.7034483 7.11724138 18.7034483 7.77931034 16.7172414 8.27586207 18.7034483 10.4275862 18.7034483 8.77241379 19.862069 9.26896552 21.6827586 7.77931034 20.5241379 6.12413793 21.6827586 6.7862069 19.862069"></polygon>
                        <polygon id="Path" points="1.48965517 24.9931034 2.15172414 23.1724138 0.331034483 21.8482759 2.48275862 21.8482759 3.14482759 20.0275862 3.64137931 21.8482759 5.62758621 21.8482759 3.97241379 23.1724138 4.63448276 24.9931034 2.97931034 23.8344828"></polygon>
                        <polygon id="Path" points="43.2 8.60689655 41.2137931 8.60689655 40.5517241 6.7862069 40.0551724 8.60689655 38.0689655 8.77241379 39.5586207 9.93103448 39.062069 11.7517241 40.5517241 10.5931034 42.2068966 11.7517241 41.5448276 9.76551724"></polygon>
                        <polygon id="Path" points="47.8344828 11.9172414 45.8482759 11.9172414 45.1862069 10.0965517 44.5241379 11.9172414 42.537931 11.9172414 44.1931034 13.0758621 43.6965517 14.8965517 45.1862069 13.9034483 46.8413793 14.8965517 46.1793103 13.0758621"></polygon>
                        <polygon id="Path" points="52.6344828 15.2275862 50.4827586 15.2275862 49.9862069 13.4068966 49.3241379 15.2275862 47.337931 15.2275862 48.9931034 16.3862069 48.3310345 18.3724138 49.9862069 17.0482759 51.6413793 18.3724138 50.9793103 16.3862069"></polygon>
                        <polygon id="Path" points="57.2689655 18.7034483 55.2827586 18.7034483 54.6206897 16.8827586 54.1241379 18.7034483 52.137931 18.7034483 53.7931034 19.862069 53.1310345 21.6827586 54.7862069 20.5241379 56.2758621 21.6827586 55.7793103 19.862069"></polygon>
                        <polygon id="Path" points="61.0758621 24.9931034 60.4137931 23.1724138 62.0689655 21.8482759 60.0827586 21.8482759 59.4206897 20.0275862 58.7586207 21.8482759 56.7724138 21.8482759 58.4275862 23.1724138 57.7655172 24.9931034 59.4206897 23.8344828"></polygon>
                    </g>
                    <path d="M4.13793103,61.0758621 L4.63448276,61.0758621 C4.63448276,61.9034483 4.8,62.0689655 5.62758621,61.9034483 L10.7586207,61.4068966 C11.5862069,61.4068966 11.7517241,61.2413793 11.5862069,60.4137931 L12.0827586,60.4137931 L12.5793103,66.537931 L10.9241379,67.0344828 L10.9241379,66.3724138 C12.0827586,66.0413793 12.0827586,65.8758621 12.0827586,65.2137931 L11.9172414,63.3931034 C11.9172414,63.062069 11.7517241,63.062069 11.4206897,63.062069 L8.93793103,63.2275862 L9.10344828,64.7172414 C9.10344828,65.2137931 9.26896552,65.3793103 10.262069,65.2137931 L10.262069,65.8758621 L7.44827586,66.2068966 L7.44827586,65.5448276 C8.44137931,65.3793103 8.60689655,65.3793103 8.60689655,64.8827586 L8.44137931,63.3931034 L5.62758621,63.5586207 C5.13103448,63.5586207 5.13103448,63.7241379 5.13103448,63.8896552 L5.29655172,66.0413793 C5.29655172,66.7034483 5.46206897,66.8689655 6.7862069,67.0344828 L6.7862069,67.6965517 L4.8,67.5310345 L4.13793103,61.0758621 Z" id="Path" fill="#11274B"></path>
                    <path d="M8.44137931,74.8137931 L12.9103448,73.8206897 C13.737931,73.6551724 13.737931,73.4896552 13.5724138,72.662069 L14.0689655,72.4965517 L14.5655172,74.8137931 L14.0689655,74.9793103 C13.9034483,74.3172414 13.737931,74.1517241 12.9103448,74.3172414 L6.28965517,75.8068966 L6.12413793,74.8137931 L11.7517241,69.0206897 L6.7862069,70.1793103 C5.95862069,70.3448276 5.95862069,70.5103448 6.12413793,71.1724138 L5.62758621,71.337931 L5.13103448,69.0206897 L5.62758621,68.8551724 C5.79310345,69.6827586 5.95862069,69.6827586 6.7862069,69.5172414 L11.9172414,68.3586207 C12.7448276,68.1931034 12.7448276,68.0275862 12.5793103,67.3655172 L13.0758621,67.2 L13.5724138,69.6827586 L8.44137931,74.8137931 Z" id="Path" fill="#11274B"></path>
                    <path d="M12.0827586,82.262069 L11.7517241,81.6 C12.7448276,81.1034483 12.7448276,80.937931 12.5793103,80.6068966 L12.0827586,79.4482759 L9.93103448,80.4413793 C9.26896552,80.7724138 9.10344828,80.937931 9.6,81.7655172 L9.10344828,82.0965517 L7.44827586,78.6206897 L7.94482759,78.4551724 C8.27586207,79.2827586 8.44137931,79.2827586 9.10344828,78.9517241 L13.9034483,76.8 C14.5655172,76.4689655 14.7310345,76.3034483 14.4,75.6413793 L14.8965517,75.4758621 L17.3793103,80.7724138 L15.7241379,81.9310345 L15.3931034,81.2689655 C16.3862069,80.4413793 16.3862069,80.2758621 16.0551724,79.7793103 L15.3931034,78.4551724 C15.2275862,78.1241379 15.2275862,78.1241379 14.7310345,78.2896552 L12.4137931,79.2827586 L12.9103448,80.2758621 C13.0758621,80.7724138 13.2413793,80.7724138 14.2344828,80.4413793 L14.5655172,81.1034483 L12.0827586,82.262069 Z" id="Path" fill="#11274B"></path>
                    <path d="M12.9103448,89.5448276 C12.2482759,88.3862069 11.9172414,87.3931034 12.0827586,86.4 C12.2482759,85.5724138 12.9103448,84.5793103 14.0689655,83.9172414 C15.2275862,83.0896552 16.5517241,82.9241379 17.5448276,83.2551724 C18.537931,83.5862069 19.2,84.2482759 19.862069,85.2413793 C20.5241379,86.2344828 20.8551724,87.2275862 20.6896552,88.2206897 C20.5241379,89.2137931 19.862069,90.2068966 18.537931,91.0344828 C17.3793103,91.862069 16.2206897,92.0275862 15.3931034,91.862069 C14.4,91.3655172 13.5724138,90.7034483 12.9103448,89.5448276 Z M19.3655172,85.2413793 C19.0344828,84.7448276 18.537931,84.4137931 17.8758621,84.2482759 C17.2137931,84.2482759 16.2206897,84.4137931 15.062069,85.2413793 C14.0689655,85.9034483 13.2413793,86.5655172 13.0758621,87.3931034 C12.9103448,87.8896552 12.9103448,88.5517241 13.4068966,89.2137931 C13.737931,89.8758621 14.4,90.2068966 14.8965517,90.2068966 C15.7241379,90.2068966 16.7172414,89.8758621 17.7103448,89.2137931 C19.0344828,88.3862069 19.5310345,87.7241379 19.862069,87.062069 C19.862069,86.4 19.862069,85.9034483 19.3655172,85.2413793 Z" id="Shape" fill="#11274B" fill-rule="nonzero"></path>
                    <path d="M21.8482759,98.3172414 C21.6827586,99.1448276 21.8482759,99.3103448 22.0137931,99.6413793 L21.6827586,100.137931 L20.1931034,98.4827586 L21.3517241,94.3448276 L20.6896552,93.8482759 L19.2,95.337931 C18.537931,95.8344828 18.537931,96 19.2,96.662069 L18.8689655,96.9931034 L16.3862069,94.5103448 L16.7172414,94.1793103 C17.3793103,94.8413793 17.3793103,94.8413793 18.0413793,94.1793103 L21.8482759,90.537931 C22.3448276,90.0413793 22.5103448,89.8758621 21.8482759,89.2137931 L22.1793103,88.8827586 L24.662069,91.3655172 C25.4896552,92.1931034 25.9862069,92.8551724 26.1517241,93.6827586 C26.3172414,94.3448276 26.1517241,94.8413793 25.6551724,95.337931 C25.3241379,95.6689655 24.8275862,95.8344828 24.3310345,96 C23.8344828,96 23.337931,95.8344828 22.8413793,95.5034483 L21.8482759,98.3172414 Z M21.1862069,93.5172414 L21.6827586,94.0137931 C22.1793103,94.5103448 22.5103448,94.6758621 23.0068966,94.6758621 C23.5034483,94.6758621 23.8344828,94.5103448 24.3310345,94.1793103 C24.662069,93.8482759 24.8275862,93.5172414 24.8275862,93.0206897 C24.8275862,92.6896552 24.662069,92.3586207 24.1655172,91.862069 L23.6689655,91.3655172 C23.5034483,91.2 23.337931,91.2 23.0068966,91.5310345 L21.1862069,93.5172414 Z" id="Shape" fill="#11274B" fill-rule="nonzero"></path>
                    <path d="M29.2965517,103.613793 C28.6344828,103.944828 28.137931,104.110345 27.4758621,104.110345 C26.8137931,104.110345 25.9862069,103.944828 25.4896552,103.448276 C24.4965517,102.62069 24,101.793103 24,100.965517 C24,99.9724138 24.3310345,98.9793103 25.1586207,97.8206897 C25.9862069,96.8275862 26.9793103,96.1655172 28.137931,96 C28.9655172,96 29.9586207,96.1655172 30.9517241,96.9931034 C31.2827586,97.3241379 31.6137931,97.4896552 31.9448276,97.8206897 C32.1103448,97.9862069 32.2758621,98.3172414 32.4413793,98.6482759 C32.1103448,99.1448276 31.7793103,99.8068966 31.4482759,100.468966 L30.7862069,100.137931 C31.1172414,99.4758621 31.2827586,98.9793103 31.2827586,98.4827586 C31.2827586,98.1517241 31.1172414,97.8206897 30.6206897,97.4896552 C30.1241379,97.1586207 29.462069,96.9931034 28.9655172,96.9931034 C28.3034483,97.1586207 27.4758621,97.6551724 26.6482759,98.6482759 C25.9862069,99.4758621 25.4896552,100.468966 25.4896552,101.296552 C25.4896552,101.958621 25.6551724,102.62069 26.1517241,102.951724 C26.4827586,103.282759 26.9793103,103.448276 27.4758621,103.448276 C27.9724138,103.448276 28.4689655,103.282759 28.9655172,102.951724 L29.2965517,103.613793 Z" id="Path" fill="#11274B"></path>
                    <path d="M29.462069,106.262069 L29.7931034,105.765517 C30.6206897,106.262069 30.6206897,106.096552 31.1172414,105.434483 L33.6,100.8 C33.9310345,100.137931 33.9310345,99.9724138 33.2689655,99.4758621 L33.6,98.9793103 L39.062069,101.958621 L38.4,103.77931 L37.737931,103.448276 C38.0689655,102.289655 37.9034483,102.124138 37.4068966,101.793103 L35.9172414,100.965517 C35.5862069,100.8 35.5862069,100.8 35.2551724,101.296552 L34.0965517,103.448276 L35.4206897,104.110345 C35.9172414,104.275862 36.0827586,104.275862 36.4137931,103.448276 L36.9103448,103.77931 L35.5862069,106.262069 L35.0896552,105.931034 C35.5862069,104.937931 35.5862069,104.937931 35.0896552,104.606897 L33.7655172,103.944828 L32.4413793,106.427586 C32.2758621,106.758621 32.2758621,106.924138 32.4413793,107.089655 L34.262069,108.082759 C34.7586207,108.413793 34.9241379,108.413793 35.9172414,107.42069 L36.5793103,107.751724 L35.2551724,109.241379 L29.462069,106.262069 Z" id="Path" fill="#11274B"></path>
                    <path d="M48.662069,105.765517 L48.4965517,106.262069 C47.6689655,105.931034 47.6689655,106.096552 47.337931,106.924138 L45.5172414,111.724138 C45.1862069,112.551724 45.3517241,112.551724 46.0137931,112.882759 L45.8482759,113.37931 L42.537931,112.22069 L42.7034483,111.724138 C43.5310345,112.055172 43.5310345,111.889655 43.862069,111.227586 L45.5172414,106.593103 L40.8827586,111.724138 L40.3862069,111.558621 L40.0551724,104.606897 L38.4,109.241379 C38.0689655,110.068966 38.2344828,110.068966 38.8965517,110.4 L38.7310345,110.896552 L36.4137931,110.068966 L36.5793103,109.572414 C37.2413793,109.903448 37.4068966,109.737931 37.737931,108.910345 L39.5586207,103.944828 C39.8896552,103.282759 39.7241379,103.117241 39.062069,102.786207 L39.2275862,102.289655 L41.7103448,103.117241 L41.8758621,109.406897 L46.0137931,104.606897 L48.662069,105.765517 Z" id="Path" fill="#11274B"></path>
                    <path d="M47.337931,113.710345 L47.5034483,113.213793 C48.3310345,113.37931 48.4965517,113.37931 48.662069,112.551724 L49.8206897,107.42069 C49.9862069,106.593103 49.9862069,106.427586 49.1586207,106.262069 L49.3241379,105.765517 L55.2827586,107.089655 L55.2827586,109.075862 L54.6206897,108.910345 C54.6206897,107.586207 54.4551724,107.586207 53.9586207,107.42069 L52.3034483,107.089655 C51.9724138,107.089655 51.9724138,107.089655 51.8068966,107.42069 L51.3103448,109.737931 L52.6344828,110.068966 C53.1310345,110.234483 53.2965517,110.068966 53.462069,109.075862 L54.1241379,109.241379 L53.462069,112.055172 L52.8,111.889655 C52.9655172,110.896552 52.9655172,110.731034 52.4689655,110.565517 L50.9793103,110.234483 L50.3172414,112.882759 C50.1517241,113.37931 50.3172414,113.37931 50.4827586,113.37931 L52.6344828,113.875862 C53.2965517,114.041379 53.462069,114.041379 53.9586207,112.717241 L54.6206897,112.882759 L53.7931034,114.703448 L47.337931,113.710345 Z" id="Path" fill="#11274B"></path>
                    <path d="M62.4,113.213793 L62.4,108.744828 C62.4,107.917241 62.2344828,107.751724 61.5724138,107.917241 L61.5724138,107.42069 L64.0551724,107.42069 L64.0551724,107.917241 C63.3931034,107.917241 63.2275862,108.082759 63.2275862,108.910345 L63.3931034,115.696552 L62.4,115.696552 L57.9310345,109.075862 L58.0965517,114.206897 C58.0965517,115.034483 58.262069,115.2 58.9241379,115.034483 L58.9241379,115.531034 L56.4413793,115.531034 L56.4413793,115.034483 C57.2689655,115.034483 57.2689655,114.868966 57.2689655,114.041379 L57.1034483,108.744828 C57.1034483,107.917241 56.937931,107.917241 56.2758621,107.917241 L56.2758621,107.42069 L58.7586207,107.42069 L62.4,113.213793 Z" id="Path" fill="#11274B"></path>
                    <path d="M69.8482759,112.882759 C70.0137931,113.710345 70.0137931,113.710345 71.0068966,113.544828 L71.1724138,114.041379 L67.3655172,114.703448 L67.2,114.206897 C68.1931034,114.041379 68.1931034,113.875862 68.0275862,113.048276 L67.0344828,107.089655 L65.8758621,107.255172 C65.2137931,107.42069 65.0482759,107.42069 65.0482759,108.744828 L64.3862069,108.910345 L64.2206897,106.924138 L70.8413793,105.765517 L71.5034483,107.751724 L70.8413793,107.917241 C70.3448276,106.593103 70.1793103,106.593103 69.5172414,106.758621 L68.5241379,106.924138 L69.8482759,112.882759 Z" id="Path" fill="#11274B"></path>
                    <path d="M84.0827586,107.42069 L82.262069,103.282759 C81.9310345,102.62069 81.7655172,102.455172 81.1034483,102.786207 L80.937931,102.289655 L83.2551724,101.296552 L83.4206897,101.793103 C82.7586207,102.124138 82.7586207,102.289655 83.0896552,102.951724 L85.9034483,109.075862 L84.9103448,109.572414 L78.2896552,105.268966 L80.4413793,109.903448 C80.7724138,110.565517 80.937931,110.731034 81.6,110.4 L81.7655172,110.896552 L79.4482759,111.889655 L79.2827586,111.393103 C79.9448276,111.062069 80.1103448,110.896552 79.7793103,110.234483 L77.6275862,105.434483 C77.2965517,104.606897 77.1310345,104.606897 76.4689655,104.937931 L76.3034483,104.441379 L78.6206897,103.448276 L84.0827586,107.42069 Z" id="Path" fill="#11274B"></path>
                    <path d="M87.7241379,108.082759 L87.3931034,107.586207 C88.0551724,107.089655 88.2206897,106.924138 87.7241379,106.262069 L85.0758621,101.793103 C84.5793103,101.131034 84.5793103,101.131034 83.7517241,101.462069 L83.4206897,100.965517 L88.7172414,97.6551724 L90.0413793,99.1448276 L89.3793103,99.4758621 C88.5517241,98.6482759 88.3862069,98.6482759 87.8896552,98.9793103 L86.4,99.9724138 C86.0689655,100.137931 86.0689655,100.303448 86.4,100.634483 L87.7241379,102.786207 L88.8827586,101.958621 C89.3793103,101.627586 89.3793103,101.462069 88.8827586,100.634483 L89.3793103,100.303448 L90.8689655,102.786207 L90.2068966,103.282759 C89.7103448,102.455172 89.5448276,102.289655 89.0482759,102.62069 L87.8896552,103.448276 L89.3793103,105.765517 C89.5448276,106.096552 89.7103448,106.096552 89.8758621,105.931034 L91.6965517,104.772414 C92.1931034,104.441379 92.3586207,104.275862 91.862069,103.117241 L92.3586207,102.786207 L93.0206897,104.606897 L87.7241379,108.082759 Z" id="Path" fill="#11274B"></path>
                    <path d="M96.8275862,99.8068966 C97.3241379,100.468966 97.4896552,100.468966 98.1517241,99.8068966 L98.4827586,100.137931 L95.6689655,102.62069 L95.337931,102.289655 C96,101.627586 96,101.462069 95.5034483,100.965517 L91.5310345,96.3310345 L90.7034483,96.9931034 C90.2068966,97.4896552 90.2068966,97.4896552 90.8689655,98.6482759 L90.3724138,98.9793103 L89.2137931,97.3241379 L94.3448276,93.0206897 L95.8344828,94.3448276 L95.337931,94.6758621 C94.3448276,93.8482759 94.1793103,93.8482759 93.6827586,94.3448276 L92.8551724,95.1724138 L96.8275862,99.8068966 Z" id="Path" fill="#11274B"></path>
                    <path d="M106.758621,90.0413793 L105.931034,91.0344828 L100.137931,88.8827586 L103.944828,93.6827586 L103.117241,94.8413793 L96.3310345,92.3586207 C95.6689655,92.1931034 95.5034483,92.1931034 95.1724138,92.5241379 L94.6758621,92.1931034 L96.4965517,89.8758621 L96.9931034,90.2068966 C96.662069,90.7034483 96.662069,90.8689655 97.3241379,91.0344828 L102.289655,92.8551724 L98.9793103,88.5517241 L98.8137931,88.5517241 C98.4827586,88.5517241 98.3172414,88.5517241 98.1517241,88.8827586 L97.6551724,88.5517241 L99.3103448,86.2344828 L99.8068966,86.5655172 C99.4758621,87.062069 99.4758621,87.2275862 100.137931,87.3931034 L105.103448,89.2137931 L101.793103,85.2413793 C101.296552,84.7448276 101.131034,84.7448276 100.8,85.0758621 L100.303448,84.7448276 L101.462069,83.2551724 L101.958621,83.5862069 C101.793103,83.9172414 101.793103,84.0827586 102.124138,84.4137931 L106.758621,90.0413793 Z" id="Path" fill="#11274B"></path>
                    <path d="M110.565517,82.9241379 C110.068966,84.0827586 109.241379,84.9103448 108.248276,85.2413793 C107.42069,85.5724138 106.262069,85.4068966 104.937931,84.9103448 C103.613793,84.2482759 102.786207,83.4206897 102.455172,82.4275862 C102.124138,81.4344828 102.289655,80.4413793 102.786207,79.4482759 C103.282759,78.4551724 103.944828,77.6275862 104.772414,77.2965517 C105.765517,76.8 106.924138,76.9655172 108.248276,77.462069 C109.572414,78.1241379 110.234483,78.7862069 110.565517,79.7793103 C111.393103,80.4413793 111.227586,81.6 110.565517,82.9241379 Z M103.448276,79.6137931 C103.117241,80.2758621 103.117241,80.7724138 103.448276,81.4344828 C103.77931,82.0965517 104.441379,82.7586207 105.765517,83.2551724 C106.924138,83.7517241 107.917241,84.0827586 108.57931,83.9172414 C109.241379,83.7517241 109.737931,83.4206897 109.903448,82.7586207 C110.234483,82.0965517 110.234483,81.4344828 109.903448,80.937931 C109.572414,80.2758621 108.744828,79.6137931 107.586207,79.1172414 C106.262069,78.4551724 105.268966,78.2896552 104.606897,78.4551724 C104.275862,78.4551724 103.77931,78.9517241 103.448276,79.6137931 Z" id="Shape" fill="#11274B" fill-rule="nonzero"></path>
                    <path d="M113.37931,70.5103448 C114.206897,70.3448276 114.372414,70.0137931 114.372414,69.6827586 L114.868966,69.8482759 L114.206897,72 L110.068966,72.9931034 L110.068966,73.6551724 L112.22069,74.3172414 C113.048276,74.4827586 113.048276,74.4827586 113.37931,73.8206897 L113.875862,73.9862069 L112.882759,77.2965517 L112.386207,77.1310345 C112.551724,76.3034483 112.551724,76.137931 111.724138,75.9724138 L106.758621,74.4827586 C105.931034,74.3172414 105.931034,74.3172414 105.6,75.1448276 L105.103448,74.9793103 L106.096552,71.5034483 C106.427586,70.3448276 106.758621,69.6827586 107.255172,69.1862069 C107.751724,68.6896552 108.248276,68.5241379 109.075862,68.8551724 C109.572414,69.0206897 110.068966,69.3517241 110.234483,69.8482759 C110.4,70.1793103 110.565517,70.8413793 110.565517,71.5034483 L113.37931,70.5103448 Z M109.406897,73.4896552 L109.572414,72.8275862 C109.737931,72.1655172 109.737931,71.8344828 109.572414,71.337931 C109.406897,71.0068966 109.075862,70.6758621 108.413793,70.5103448 C107.917241,70.3448276 107.586207,70.3448276 107.255172,70.6758621 C106.924138,70.8413793 106.758621,71.1724138 106.593103,71.8344828 L106.427586,72.4965517 C106.427586,72.8275862 106.427586,72.8275862 106.924138,72.9931034 L109.406897,73.4896552 Z" id="Shape" fill="#11274B" fill-rule="nonzero"></path>
                    <path d="M114.206897,61.4068966 C115.034483,60.9103448 115.2,60.7448276 115.2,60.2482759 L115.696552,60.2482759 L115.531034,62.5655172 L111.227586,64.5517241 L111.889655,65.3793103 L113.710345,65.5448276 C114.537931,65.5448276 114.703448,65.5448276 114.703448,64.7172414 L115.2,64.7172414 L114.868966,68.1931034 L114.372414,68.1931034 C114.372414,67.3655172 114.372414,67.2 113.544828,67.2 L108.413793,66.7034483 C107.586207,66.7034483 107.42069,66.7034483 107.42069,67.5310345 L106.924138,67.5310345 L107.255172,64.0551724 L107.751724,64.0551724 C107.751724,64.7172414 107.751724,64.8827586 108.57931,64.8827586 L110.896552,65.0482759 L108.57931,62.5655172 C108.082759,62.0689655 107.751724,61.9034483 107.751724,62.5655172 L107.255172,62.5655172 L107.42069,59.9172414 L107.917241,59.9172414 C107.917241,60.4137931 107.917241,60.5793103 108.413793,61.0758621 L110.068966,63.062069 L114.206897,61.4068966 Z" id="Path" fill="#11274B"></path>
                    <path d="M28.137931,69.6827586 L28.137931,70.3448276 L27.6413793,70.6758621 C27.4758621,75.8068966 28.8,80.4413793 31.2827586,83.5862069" id="Path" stroke="#FFFFFF" stroke-width="0.25" fill="#11274B"></path>
                    <polygon id="Rectangle" fill="#FFFFFF" transform="translate(27.887197, 70.501465) rotate(50.542890) translate(-27.887197, -70.501465) " points="27.4734044 70.087672 28.3009901 70.087672 28.3009901 70.9152577 27.4734044 70.9152577"></polygon>
                </g>
            </g>
        </g>
    </g>
</svg>